<?xml version="1.0" standalone="no"?>
<!DOCTYPE svg PUBLIC "-//W3C//DTD SVG 20010904//EN"
 "http://www.w3.org/TR/2001/REC-SVG-20010904/DTD/svg10.dtd">
<svg version="1.0" xmlns="http://www.w3.org/2000/svg"
 width="64.000000pt" height="64.000000pt" viewBox="0 0 64.000000 64.000000"
 preserveAspectRatio="xMidYMid meet" fill="#FFFFFF">

<g transform="translate(0.000000,64.000000) scale(0.100000,-0.100000)"
fill="#000000" stroke="none">
<path d="M255 601 c-84 -22 -154 -80 -196 -161 -34 -66 -33 -176 3 -245 31
-60 77 -105 138 -136 64 -32 176 -32 240 0 61 31 107 76 138 136 37 71 37 179
0 250 -49 94 -135 152 -235 160 -32 2 -71 1 -88 -4z m160 -28 c65 -22 136 -93
158 -158 76 -222 -126 -424 -348 -348 -31 10 -67 34 -95 63 -107 106 -107 274
0 381 75 75 181 98 285 62z"/>
<path d="M249 536 c-56 -20 -96 -53 -126 -104 -40 -67 -40 -157 0 -224 15 -27
32 -48 37 -48 14 0 13 17 -1 26 -21 13 -49 89 -49 134 0 113 97 210 210 210
22 0 40 5 40 10 0 14 -68 12 -111 -4z"/>
<path d="M395 520 c3 -5 13 -10 21 -10 8 0 12 5 9 10 -3 6 -13 10 -21 10 -8 0
-12 -4 -9 -10z"/>
<path d="M450 492 c0 -5 10 -17 21 -28 70 -62 76 -205 12 -276 -9 -10 -13 -21
-9 -25 12 -12 45 38 62 94 20 69 11 131 -30 191 -29 43 -56 65 -56 44z"/>
<path d="M292 407 c-23 -24 -19 -45 5 -26 11 9 13 -3 13 -70 0 -65 -3 -81 -15
-81 -8 0 -15 -4 -15 -10 0 -5 18 -10 40 -10 22 0 40 5 40 10 0 6 -7 10 -15 10
-12 0 -15 18 -15 100 0 55 -4 100 -8 100 -5 0 -18 -10 -30 -23z"/>
<path d="M210 134 c0 -8 5 -12 10 -9 6 3 10 10 10 16 0 5 -4 9 -10 9 -5 0 -10
-7 -10 -16z"/>
<path d="M410 141 c0 -6 5 -13 10 -16 6 -3 10 1 10 9 0 9 -4 16 -10 16 -5 0
-10 -4 -10 -9z"/>
<path d="M260 115 c0 -8 2 -15 4 -15 2 0 6 7 10 15 3 8 1 15 -4 15 -6 0 -10
-7 -10 -15z"/>
<path d="M310 110 c0 -11 5 -20 10 -20 6 0 10 9 10 20 0 11 -4 20 -10 20 -5 0
-10 -9 -10 -20z"/>
<path d="M366 115 c4 -8 8 -15 10 -15 2 0 4 7 4 15 0 8 -4 15 -10 15 -5 0 -7
-7 -4 -15z"/>
</g>
</svg>
